# xmcd CD database file
#
# Track frame offsets:
#	150
#	15850
#	29385
#	61400
#	79947
#	106062
#	125925
#	143012
#	161447
#	178187
#	195190
#	217340
#	237712
#
# Disc length: 3358 seconds
#
# Revision: 3
# Processed by: cddbd v1.5PL3 Copyright (c) Steve Scherf et al.
# Submitted via: CDex 1.51
#
DISCID=b30d1c0d
DTITLE=Tab Benoit - These Blues Are All Mine
DYEAR=1999
DGENRE=Blues
TTITLE0=I'm Tired
TTITLE1=Crosscut Saw
TTITLE2=These Blues Are Mine
TTITLE3=Lights Are On But Nobody's Home
TTITLE4=Raided That Joint
TTITLE5=Crawfishin"
TTITLE6=Mother Earth
TTITLE7=Don't Lose Your Cool
TTITLE8=Jambalaya
TTITLE9=Twenty Nine Ways
TTITLE10=Keep Yourself From Crying Too
TTITLE11=Travelin' South
TTITLE12=Bayou Boogie
EXTD=YEAR: 1999
EXTT0=
EXTT1=
EXTT2=
EXTT3=
EXTT4=
EXTT5=
EXTT6=
EXTT7=
EXTT8=
EXTT9=
EXTT10=
EXTT11=
EXTT12=
PLAYORDER=
